<?xml version="1.0" encoding="UTF-8"?>
<svg width="100px" height="78px" viewBox="0 0 100 78" version="1.1" xmlns="http://www.w3.org/2000/svg" xmlns:xlink="http://www.w3.org/1999/xlink">
    <!-- Generator: Sketch 49.3 (51167) - http://www.bohemiancoding.com/sketch -->
    <title>screen</title>
    <desc>Created with Sketch.</desc>
    <defs></defs>
    <g id="product-site" stroke="none" stroke-width="1" fill="none" fill-rule="evenodd">
        <g id="no_project" transform="translate(-738.000000, -185.000000)" fill="#4A4A4A" fill-rule="nonzero">
            <g id="screen" transform="translate(738.000000, 185.000000)">
                <path d="M50,36.2326923 L24.5384615,36.2326923 C23.7764423,36.2326923 23.1586538,36.8504808 23.1586538,37.6125 C23.1586538,38.3745192 23.7764423,38.9923077 24.5384615,38.9923077 L50,38.9923077 C50.7620192,38.9923077 51.3798077,38.3745192 51.3798077,37.6125 C51.3798077,36.8504808 50.7620192,36.2326923 50,36.2326923 Z" id="Shape"></path>
                <path d="M98.5384615,1.65576923 L98.5,1.65576923 C97.5663462,0.715384615 96.2963942,0.186057692 94.9711538,0.184615385 L5.02884615,0.184615385 C3.70841346,0.186057692 2.44254808,0.711778846 1.50961538,1.64615385 C0.555288462,2.57355769 0.0115384615,3.84423077 0,5.175 C0.00144230769,6.49543269 0.527163462,7.76129808 1.46153846,8.69423077 C2.39519231,9.63461538 3.66514423,10.1639423 4.99038462,10.1653846 L5.95192308,10.1653846 L5.95192308,53.7230769 C5.95721154,56.6415865 8.321875,59.00625 11.2403846,59.0115385 L48.625,59.0115385 L48.625,65.4634615 C47.5543269,65.7213942 46.5759615,66.2706731 45.7980769,67.05 C43.4721154,69.3728365 43.4694712,73.1413462 45.7923077,75.4673077 C45.7942308,75.4692308 45.7961538,75.4711538 45.7980769,75.4730769 C48.1209135,77.7990385 51.8894231,77.8016827 54.2153846,75.4788462 C54.2173077,75.4769231 54.2192308,75.475 54.2211538,75.4730769 C56.5471154,73.1502404 56.5497596,69.3817308 54.2269231,67.0557692 C54.225,67.0538462 54.2230769,67.0519231 54.2211538,67.05 C53.440625,66.2689904 52.4586538,65.7199519 51.3846154,65.4634615 L51.3846154,59.0211538 L88.7692308,59.0211538 C91.6877404,59.0158654 94.0524038,56.6512019 94.0576923,53.7326923 L94.0576923,10.175 L95.0192308,10.175 C96.3396635,10.1735577 97.6055288,9.64783654 98.5384615,8.71346154 C99.4776442,7.77572115 100.003606,6.50216346 100,5.175 C99.9985577,3.85456731 99.4728365,2.58870192 98.5384615,1.65576923 Z M52.2692308,68.9634615 C53.5158654,70.2194712 53.5158654,72.2459135 52.2692308,73.5019231 C51.0132212,74.7485577 48.9867788,74.7485577 47.7307692,73.5019231 C46.4841346,72.2459135 46.4841346,70.2194712 47.7307692,68.9634615 C48.9867788,67.7168269 51.0132212,67.7168269 52.2692308,68.9634615 Z M88.7692308,56.2230769 L11.2307692,56.2230769 C9.83629808,56.2177885 8.70721154,55.0887019 8.70192308,53.6942308 L8.70192308,10.175 L91.2884615,10.175 L91.2980769,53.6942308 C91.2927885,55.0887019 90.1637019,56.2177885 88.7692308,56.2230769 Z M96.5576923,6.71346154 C96.1394231,7.13197115 95.5723558,7.36706731 94.9807692,7.36730769 L5.02884615,7.36730769 C4.43725962,7.36706731 3.87019231,7.13197115 3.45192308,6.71346154 C3.03341346,6.29519231 2.79831731,5.728125 2.79807692,5.13653846 C2.79831731,4.54495192 3.03341346,3.97788462 3.45192308,3.55961538 C3.87019231,3.14110577 4.43725962,2.90600962 5.02884615,2.90576923 L94.9711538,2.90576923 C95.5627404,2.90600962 96.1298077,3.14110577 96.5480769,3.55961538 C96.9665865,3.97788462 97.2016827,4.54495192 97.2019231,5.13653846 L97.2115385,5.13653846 C97.2112981,5.728125 96.9762019,6.29519231 96.5576923,6.71346154 Z" id="Shape"></path>
                <path d="M50,18.6461538 L24.5384615,18.6461538 C23.7764423,18.6461538 23.1586538,19.2639423 23.1586538,20.0259615 C23.1586538,20.7879808 23.7764423,21.4057692 24.5384615,21.4057692 L50,21.4057692 C50.7620192,21.4057692 51.3798077,20.7879808 51.3798077,20.0259615 C51.3798077,19.2639423 50.7620192,18.6461538 50,18.6461538 Z" id="Shape"></path>
                <path d="M75.5,27.4442308 L24.5384615,27.4442308 C23.7764423,27.4442308 23.1586538,28.0620192 23.1586538,28.8240385 C23.1586538,29.5860577 23.7764423,30.2038462 24.5384615,30.2038462 L75.5,30.2038462 C76.2620192,30.2038462 76.8798077,29.5860577 76.8798077,28.8240385 C76.8798077,28.0620192 76.2620192,27.4442308 75.5,27.4442308 Z" id="Shape"></path>
                <path d="M75.5,45.0211538 L24.5384615,45.0211538 C23.7764423,45.0211538 23.1586538,45.6389423 23.1586538,46.4009615 C23.1586538,47.1629808 23.7764423,47.7807692 24.5384615,47.7807692 L75.5,47.7807692 C76.2620192,47.7807692 76.8798077,47.1629808 76.8798077,46.4009615 C76.8798077,45.6389423 76.2620192,45.0211538 75.5,45.0211538 Z" id="Shape"></path>
            </g>
        </g>
    </g>
</svg>